# This file uses meters as units for non-parametric coordinates.

mtllib middle wall.mtl
g default
v -37.599846 -49.039349 235.038574
v -4.965965 -49.039349 235.038574
v -64.907188 164.820557 235.038574
v -6.280144 164.820557 235.038574
v -64.907188 164.820557 -308.079819
v -6.280144 164.820557 -308.079819
v -37.599846 -49.039349 -308.079819
v -4.965965 -49.039349 -308.079819
v -97.067055 88.425369 -218.730820
v -41.562645 115.358940 -218.730820
v -97.534935 113.227364 -218.730820
v -41.094780 138.140488 -218.730820
v -97.534935 113.227364 -267.186203
v -41.094780 138.140488 -267.186203
v -97.067055 88.425369 -267.186203
v -41.562645 115.358940 -267.186203
v -174.152924 23.308113 -234.312668
v -143.777527 11.190689 -234.312668
v -61.516685 121.595230 -234.312668
v -38.831566 121.595230 -234.312668
v -61.516685 121.595230 -250.198288
v -38.831566 121.595230 -250.198288
v -174.152924 23.308113 -250.198288
v -143.777527 11.190689 -250.198288
v -196.397461 -29.972702 -250.198288
v -166.022064 -42.090126 -250.198288
v -166.022064 -42.090126 -234.312668
v -196.397461 -29.972702 -234.312668
v -234.220001 -50.720726 -193.843490
v -108.453423 -50.720726 -193.843490
v -212.620087 -18.764160 -212.580185
v -136.519714 -18.764160 -212.580185
v -212.620087 -18.764160 -264.649399
v -136.519714 -18.764160 -264.649399
v -234.220001 -50.720726 -283.386215
v -108.453423 -50.720726 -283.386215
v -97.067055 88.425369 198.042114
v -41.562645 115.358940 198.042114
v -97.534935 113.227364 198.042114
v -41.094780 138.140488 198.042114
v -97.534935 113.227364 149.586792
v -41.094780 138.140488 149.586792
v -97.067055 88.425369 149.586792
v -41.562645 115.358940 149.586792
v -174.152924 23.308113 182.460327
v -143.777527 11.190689 182.460327
v -61.516685 121.595230 182.460327
v -38.831566 121.595230 182.460327
v -61.516685 121.595230 166.574707
v -38.831566 121.595230 166.574707
v -174.152924 23.308113 166.574707
v -143.777527 11.190689 166.574707
v -196.397461 -29.972702 166.574707
v -166.022064 -42.090126 166.574707
v -166.022064 -42.090126 182.460327
v -196.397461 -29.972702 182.460327
v -234.220001 -50.720726 222.929566
v -108.453423 -50.720726 222.929566
v -212.620087 -18.764160 204.192749
v -136.519714 -18.764160 204.192749
v -212.620087 -18.764160 152.123657
v -136.519714 -18.764160 152.123657
v -234.220001 -50.720726 133.386841
v -108.453423 -50.720726 133.386841
v -38.941765 75.941261 -343.066204
v -61.313591 75.941261 -343.066204
v -38.941765 175.941254 -343.066204
v -61.313591 175.941254 -343.066204
v -38.941765 159.313766 -243.066208
v -61.313591 159.313766 -243.066208
v -38.941765 75.941261 -243.066208
v -61.313591 75.941261 -243.066208
v -37.485161 54.451611 -379.346355
v -64.093010 54.451611 -379.346355
v -32.599785 97.530220 -379.941326
v -69.322151 97.530220 -379.941326
v -32.599785 117.430283 -279.941269
v -69.322151 117.430283 -279.941269
v -37.485161 34.551540 -279.941269
v -64.093010 34.551540 -279.941269
v -38.941765 -49.659138 -360.672832
v -61.313591 -49.659138 -360.672832
v -38.941765 50.340862 -343.066204
v -61.313591 50.340862 -343.066204
v -38.941765 50.340862 -243.066208
v -61.313591 50.340862 -243.066208
v -38.941765 -49.659138 -243.066208
v -61.313591 -49.659138 -243.066208
v -60.796608 75.941261 279.454834
v -38.424797 75.941261 279.454834
v -60.796608 175.941254 279.454834
v -38.424797 175.941254 279.454834
v -60.796608 159.313766 179.454834
v -38.424797 159.313766 179.454834
v -60.796608 75.941261 179.454834
v -38.424797 75.941261 179.454834
v -62.253227 54.451611 315.734985
v -38.223778 54.451611 315.734985
v -67.138588 97.530220 316.329956
v -32.994652 97.530220 316.329956
v -67.138588 117.430283 216.329956
v -32.994652 117.430283 216.329956
v -62.253227 34.551540 216.329956
v -38.223778 34.551540 216.329956
v -60.796608 -49.659138 297.061524
v -38.424797 -49.659138 297.061524
v -60.796608 50.340862 279.454834
v -38.424797 50.340862 279.454834
v -60.796608 50.340862 179.454834
v -38.424797 50.340862 179.454834
v -60.796608 -49.659138 179.454834
v -38.424797 -49.659138 179.454834
vt 0.375000 0.000000
vt 0.625000 0.000000
vt 0.625000 0.250000
vt 0.375000 0.250000
vt 0.625000 0.500000
vt 0.375000 0.500000
vt 0.625000 0.750000
vt 0.375000 0.750000
vt 0.875000 0.000000
vt 0.875000 0.250000
vt 0.125000 0.000000
vt 0.125000 0.250000
vt 0.375000 0.000000
vt 0.625000 0.000000
vt 0.625000 0.250000
vt 0.375000 0.250000
vt 0.625000 0.500000
vt 0.375000 0.500000
vt 0.625000 0.750000
vt 0.375000 0.750000
vt 0.625000 1.000000
vt 0.375000 1.000000
vt 0.875000 0.000000
vt 0.875000 0.250000
vt 0.125000 0.000000
vt 0.125000 0.250000
vt 0.375000 0.000000
vt 0.625000 0.000000
vt 0.625000 0.250000
vt 0.375000 0.250000
vt 0.375000 0.500000
vt 0.625000 0.500000
vt 0.625000 0.750000
vt 0.375000 0.750000
vt 0.875000 0.000000
vt 0.875000 0.250000
vt 0.125000 0.000000
vt 0.125000 0.250000
vt 0.625000 0.750000
vt 0.375000 0.750000
vt 0.625000 1.000000
vt 0.625000 1.000000
vt 0.375000 1.000000
vt 0.375000 1.000000
vt 0.375000 0.000000
vt 0.625000 0.000000
vt 0.625000 0.250000
vt 0.375000 0.250000
vt 0.625000 0.500000
vt 0.375000 0.500000
vt 0.625000 0.750000
vt 0.375000 0.750000
vt 0.875000 0.000000
vt 0.875000 0.250000
vt 0.125000 0.000000
vt 0.125000 0.250000
vt 0.375000 0.000000
vt 0.625000 0.000000
vt 0.625000 0.250000
vt 0.375000 0.250000
vt 0.625000 0.500000
vt 0.375000 0.500000
vt 0.625000 0.750000
vt 0.375000 0.750000
vt 0.625000 1.000000
vt 0.375000 1.000000
vt 0.875000 0.000000
vt 0.875000 0.250000
vt 0.125000 0.000000
vt 0.125000 0.250000
vt 0.375000 0.000000
vt 0.625000 0.000000
vt 0.625000 0.250000
vt 0.375000 0.250000
vt 0.375000 0.500000
vt 0.625000 0.500000
vt 0.625000 0.750000
vt 0.375000 0.750000
vt 0.875000 0.000000
vt 0.875000 0.250000
vt 0.125000 0.000000
vt 0.125000 0.250000
vt 0.625000 0.750000
vt 0.375000 0.750000
vt 0.625000 1.000000
vt 0.625000 1.000000
vt 0.375000 1.000000
vt 0.375000 1.000000
vt 0.375000 0.000000
vt 0.625000 0.000000
vt 0.625000 0.250000
vt 0.375000 0.250000
vt 0.625000 0.500000
vt 0.375000 0.500000
vt 0.625000 0.750000
vt 0.375000 0.750000
vt 0.875000 0.000000
vt 0.875000 0.250000
vt 0.125000 0.000000
vt 0.125000 0.250000
vt 0.375000 0.000000
vt 0.625000 0.000000
vt 0.625000 0.250000
vt 0.375000 0.250000
vt 0.625000 0.500000
vt 0.375000 0.500000
vt 0.875000 0.000000
vt 0.875000 0.250000
vt 0.125000 0.000000
vt 0.125000 0.250000
vt 0.375000 0.000000
vt 0.625000 0.000000
vt 0.625000 0.250000
vt 0.375000 0.250000
vt 0.625000 0.500000
vt 0.375000 0.500000
vt 0.625000 0.750000
vt 0.375000 0.750000
vt 0.625000 1.000000
vt 0.375000 1.000000
vt 0.875000 0.000000
vt 0.875000 0.250000
vt 0.125000 0.000000
vt 0.125000 0.250000
vt 0.375000 0.000000
vt 0.625000 0.000000
vt 0.625000 0.250000
vt 0.375000 0.250000
vt 0.625000 0.500000
vt 0.375000 0.500000
vt 0.875000 0.000000
vt 0.875000 0.250000
vt 0.125000 0.000000
vt 0.125000 0.250000
vt 0.000000 0.000000
vt 0.223718 0.000000
vt 0.223718 1.000000
vt 0.000000 1.000000
vt 0.375000 0.000000
vt 0.625000 0.000000
vt 0.625000 0.250000
vt 0.375000 0.250000
vt 0.625000 0.500000
vt 0.375000 0.500000
vt 0.875000 0.000000
vt 0.875000 0.250000
vt 0.125000 0.000000
vt 0.125000 0.250000
vt 0.375000 0.000000
vt 0.625000 0.000000
vt 0.625000 0.250000
vt 0.375000 0.250000
vt 0.625000 0.500000
vt 0.375000 0.500000
vt 0.625000 0.750000
vt 0.375000 0.750000
vt 0.625000 1.000000
vt 0.375000 1.000000
vt 0.875000 0.000000
vt 0.875000 0.250000
vt 0.125000 0.000000
vt 0.125000 0.250000
vt 0.375000 0.000000
vt 0.625000 0.000000
vt 0.625000 0.250000
vt 0.375000 0.250000
vt 0.625000 0.500000
vt 0.375000 0.500000
vt 0.875000 0.000000
vt 0.875000 0.250000
vt 0.125000 0.000000
vt 0.125000 0.250000
vt 0.000000 1.000000
vt 0.223718 1.000000
vt 0.223718 0.000000
vt 0.000000 0.000000
vn 0.000000 0.000000 1.000000
vn 0.000000 0.000000 1.000000
vn 0.000000 0.000000 1.000000
vn 0.000000 0.000000 1.000000
vn 0.000000 1.000000 0.000000
vn 0.000000 1.000000 0.000000
vn 0.000000 1.000000 0.000000
vn 0.000000 1.000000 0.000000
vn 0.000000 0.000000 -1.000000
vn 0.000000 0.000000 -1.000000
vn 0.000000 0.000000 -1.000000
vn 0.000000 0.000000 -1.000000
vn 0.999981 0.006145 0.000000
vn 0.999981 0.006145 0.000000
vn 0.999981 0.006145 0.000000
vn 0.999981 0.006145 0.000000
vn -0.991946 -0.126660 0.000000
vn -0.991946 -0.126660 0.000000
vn -0.991946 -0.126660 0.000000
vn -0.991946 -0.126660 0.000000
vn 0.000000 0.000000 1.000000
vn 0.000000 0.000000 1.000000
vn 0.000000 0.000000 1.000000
vn 0.000000 0.000000 1.000000
vn -0.403817 0.914840 0.000000
vn -0.403817 0.914840 0.000000
vn -0.403817 0.914840 0.000000
vn -0.403817 0.914840 0.000000
vn 0.000000 0.000000 -1.000000
vn 0.000000 0.000000 -1.000000
vn 0.000000 0.000000 -1.000000
vn 0.000000 0.000000 -1.000000
vn 0.436567 -0.899672 0.000000
vn 0.436567 -0.899672 0.000000
vn 0.436567 -0.899672 0.000000
vn 0.436567 -0.899672 0.000000
vn 0.999789 -0.020533 0.000000
vn 0.999789 -0.020533 0.000000
vn 0.999789 -0.020533 0.000000
vn 0.999789 -0.020533 0.000000
vn -0.999822 -0.018861 0.000000
vn -0.999822 -0.018861 0.000000
vn -0.999822 -0.018861 0.000000
vn -0.999822 -0.018861 0.000000
vn 0.000000 0.000000 1.000000
vn 0.000000 0.000000 1.000000
vn 0.000000 0.000000 1.000000
vn 0.000000 0.000000 1.000000
vn 0.000000 0.000000 -1.000000
vn 0.000000 0.000000 -1.000000
vn 0.000000 0.000000 -1.000000
vn 0.000000 0.000000 -1.000000
vn 0.724797 -0.688962 0.000000
vn 0.724797 -0.688962 0.000000
vn 0.724797 -0.688962 0.000000
vn 0.724797 -0.688962 0.000000
vn -0.657483 0.753470 0.000000
vn -0.657483 0.753470 0.000000
vn -0.657483 0.753470 0.000000
vn -0.657483 0.753470 0.000000
vn 0.000000 0.000000 -1.000000
vn 0.000000 0.000000 -1.000000
vn 0.000000 0.000000 -1.000000
vn 0.000000 0.000000 -1.000000
vn 0.922805 -0.385268 0.000000
vn 0.922805 -0.385268 0.000000
vn 0.922805 -0.385268 0.000000
vn 0.922805 -0.385268 0.000000
vn 0.000000 0.000000 1.000000
vn 0.000000 0.000000 1.000000
vn 0.000000 0.000000 1.000000
vn 0.000000 0.000000 1.000000
vn -0.922805 0.385268 0.000000
vn -0.922805 0.385268 0.000000
vn -0.922805 0.385268 0.000000
vn -0.922805 0.385268 0.000000
vn 0.000000 0.505790 0.862656
vn 0.000000 0.505790 0.862656
vn 0.000000 0.505790 0.862656
vn 0.000000 0.505790 0.862656
vn 0.000000 1.000000 0.000000
vn 0.000000 1.000000 0.000000
vn 0.000000 1.000000 0.000000
vn 0.000000 1.000000 0.000000
vn 0.000000 0.505793 -0.862655
vn 0.000000 0.505793 -0.862655
vn 0.000000 0.505793 -0.862655
vn 0.000000 0.505793 -0.862655
vn 0.751360 0.659892 0.000000
vn 0.751360 0.659892 0.000000
vn 0.751360 0.659892 0.000000
vn 0.751360 0.659892 0.000000
vn -0.828497 0.559994 0.000000
vn -0.828497 0.559994 0.000000
vn -0.828497 0.559994 0.000000
vn -0.828497 0.559994 0.000000
vn 0.000000 0.000000 1.000000
vn 0.000000 0.000000 1.000000
vn 0.000000 0.000000 1.000000
vn 0.000000 0.000000 1.000000
vn -0.403817 0.914840 0.000000
vn -0.403817 0.914840 0.000000
vn -0.403817 0.914840 0.000000
vn -0.403817 0.914840 0.000000
vn 0.000000 0.000000 -1.000000
vn 0.000000 0.000000 -1.000000
vn 0.000000 0.000000 -1.000000
vn 0.000000 0.000000 -1.000000
vn 0.436567 -0.899672 0.000000
vn 0.436567 -0.899672 0.000000
vn 0.436567 -0.899672 0.000000
vn 0.436567 -0.899672 0.000000
vn 0.999789 -0.020533 0.000000
vn 0.999789 -0.020533 0.000000
vn 0.999789 -0.020533 0.000000
vn 0.999789 -0.020533 0.000000
vn -0.999822 -0.018861 0.000000
vn -0.999822 -0.018861 0.000000
vn -0.999822 -0.018861 0.000000
vn -0.999822 -0.018861 0.000000
vn 0.000001 0.000000 1.000000
vn 0.000001 0.000000 1.000000
vn 0.000001 0.000000 1.000000
vn 0.000001 0.000000 1.000000
vn 0.000000 0.000000 -1.000000
vn 0.000000 0.000000 -1.000000
vn 0.000000 0.000000 -1.000000
vn 0.000000 0.000000 -1.000000
vn 0.724797 -0.688962 0.000000
vn 0.724797 -0.688962 0.000000
vn 0.724797 -0.688962 0.000000
vn 0.724797 -0.688962 0.000000
vn -0.657484 0.753469 0.000000
vn -0.657484 0.753469 0.000000
vn -0.657484 0.753469 0.000000
vn -0.657484 0.753469 0.000000
vn 0.000001 0.000000 -1.000000
vn 0.000001 0.000000 -1.000000
vn 0.000001 0.000000 -1.000000
vn 0.000001 0.000000 -1.000000
vn 0.922805 -0.385268 0.000000
vn 0.922805 -0.385268 0.000000
vn 0.922805 -0.385268 0.000000
vn 0.922805 -0.385268 0.000000
vn 0.000000 0.000000 1.000000
vn 0.000000 0.000000 1.000000
vn 0.000000 0.000000 1.000000
vn 0.000000 0.000000 1.000000
vn -0.922805 0.385268 0.000000
vn -0.922805 0.385268 0.000000
vn -0.922805 0.385268 0.000000
vn -0.922805 0.385268 0.000000
vn 0.000000 0.505793 0.862655
vn 0.000000 0.505793 0.862655
vn 0.000000 0.505793 0.862655
vn 0.000000 0.505793 0.862655
vn 0.000000 1.000000 0.000000
vn 0.000000 1.000000 0.000000
vn 0.000000 1.000000 0.000000
vn 0.000000 1.000000 0.000000
vn 0.000000 0.505793 -0.862655
vn 0.000000 0.505793 -0.862655
vn 0.000000 0.505793 -0.862655
vn 0.000000 0.505793 -0.862655
vn 0.751360 0.659892 0.000000
vn 0.751360 0.659892 0.000000
vn 0.751360 0.659892 0.000000
vn 0.751360 0.659892 0.000000
vn -0.828497 0.559994 0.000000
vn -0.828497 0.559994 0.000000
vn -0.828497 0.559994 0.000000
vn -0.828497 0.559994 0.000000
vn 0.000000 0.000000 -1.000000
vn 0.000000 0.000000 -1.000000
vn 0.000000 0.000000 -1.000000
vn 0.000000 0.000000 -1.000000
vn 0.000000 0.986457 0.164023
vn 0.000000 0.986457 0.164023
vn 0.000000 0.986457 0.164023
vn 0.000000 0.986457 0.164023
vn -1.000000 0.000000 0.000000
vn -1.000000 0.000000 0.000000
vn -1.000000 0.000000 0.000000
vn -1.000000 0.000000 0.000000
vn 1.000000 0.000000 0.000000
vn 1.000000 0.000000 0.000000
vn 1.000000 0.000000 0.000000
vn 1.000000 0.000000 0.000000
vn 0.000000 -0.013810 -0.999905
vn 0.000000 -0.013810 -0.999905
vn 0.000000 -0.013810 -0.999905
vn 0.000000 -0.013810 -0.999905
vn 0.000000 0.980769 -0.195173
vn 0.000000 0.980769 -0.195173
vn 0.000000 0.980769 -0.195173
vn 0.000000 0.980769 -0.195173
vn 0.000000 0.000000 1.000000
vn 0.000000 0.000000 1.000000
vn 0.000000 0.000000 1.000000
vn 0.000000 0.000000 1.000000
vn 0.000000 -0.980545 -0.196297
vn 0.000000 -0.980545 -0.196297
vn 0.000000 -0.980545 -0.196297
vn 0.000000 -0.980545 -0.196297
vn -0.996571 -0.082746 0.000000
vn -0.996571 -0.082746 0.000000
vn -0.996571 -0.082746 0.000000
vn -0.996571 -0.082746 0.000000
vn 0.997005 -0.077340 0.000000
vn 0.997005 -0.077340 0.000000
vn 0.997005 -0.077340 0.000000
vn 0.997005 -0.077340 0.000000
vn 0.000000 0.173399 -0.984852
vn 0.000000 0.173399 -0.984852
vn 0.000000 0.173399 -0.984852
vn 0.000000 0.173399 -0.984852
vn 0.000000 1.000000 0.000000
vn 0.000000 1.000000 0.000000
vn 0.000000 1.000000 0.000000
vn 0.000000 1.000000 0.000000
vn -1.000000 0.000000 0.000000
vn -1.000000 0.000000 0.000000
vn -1.000000 0.000000 0.000000
vn -1.000000 0.000000 0.000000
vn 1.000000 0.000000 0.000000
vn 1.000000 0.000000 0.000000
vn 1.000000 0.000000 0.000000
vn 1.000000 0.000000 0.000000
vn 0.000000 0.000000 1.000000
vn 0.000000 0.000000 1.000000
vn 0.000000 0.000000 1.000000
vn 0.000000 0.000000 1.000000
vn 0.000000 0.000000 1.000000
vn 0.000000 0.000000 1.000000
vn 0.000000 0.000000 1.000000
vn 0.000000 0.000000 1.000000
vn 0.000000 0.986457 -0.164023
vn 0.000000 0.986457 -0.164023
vn 0.000000 0.986457 -0.164023
vn 0.000000 0.986457 -0.164023
vn 1.000000 0.000000 0.000000
vn 1.000000 0.000000 0.000000
vn 1.000000 0.000000 0.000000
vn 1.000000 0.000000 0.000000
vn -1.000000 0.000000 0.000000
vn -1.000000 0.000000 0.000000
vn -1.000000 0.000000 0.000000
vn -1.000000 0.000000 0.000000
vn 0.000000 -0.013810 0.999905
vn 0.000000 -0.013810 0.999905
vn 0.000000 -0.013810 0.999905
vn 0.000000 -0.013810 0.999905
vn 0.000000 0.980769 0.195174
vn 0.000000 0.980769 0.195174
vn 0.000000 0.980769 0.195174
vn 0.000000 0.980769 0.195174
vn 0.000000 0.000000 -1.000000
vn 0.000000 0.000000 -1.000000
vn 0.000000 0.000000 -1.000000
vn 0.000000 0.000000 -1.000000
vn 0.000000 -0.980545 0.196297
vn 0.000000 -0.980545 0.196297
vn 0.000000 -0.980545 0.196297
vn 0.000000 -0.980545 0.196297
vn 0.996571 -0.082745 0.000000
vn 0.996571 -0.082745 0.000000
vn 0.996571 -0.082745 0.000000
vn 0.996571 -0.082745 0.000000
vn -0.997005 -0.077339 0.000000
vn -0.997005 -0.077339 0.000000
vn -0.997005 -0.077339 0.000000
vn -0.997005 -0.077339 0.000000
vn 0.000000 0.173400 0.984852
vn 0.000000 0.173400 0.984852
vn 0.000000 0.173400 0.984852
vn 0.000000 0.173400 0.984852
vn 0.000000 1.000000 0.000000
vn 0.000000 1.000000 0.000000
vn 0.000000 1.000000 0.000000
vn 0.000000 1.000000 0.000000
vn 1.000000 0.000000 0.000000
vn 1.000000 0.000000 0.000000
vn 1.000000 0.000000 0.000000
vn 1.000000 0.000000 0.000000
vn -1.000000 0.000000 0.000000
vn -1.000000 0.000000 0.000000
vn -1.000000 0.000000 0.000000
vn -1.000000 0.000000 0.000000
vn 0.000000 0.000000 -1.000000
vn 0.000000 0.000000 -1.000000
vn 0.000000 0.000000 -1.000000
vn 0.000000 0.000000 -1.000000
s off
g pasted__middle_wall group2
usemtl initialShadingGroup
f 1/1/1 2/2/2 4/3/3 3/4/4
f 3/4/5 4/3/6 6/5/7 5/6/8
f 5/6/9 6/5/10 8/7/11 7/8/12
f 2/2/13 8/9/14 6/10/15 4/3/16
f 7/11/17 1/1/18 3/4/19 5/12/20
f 9/13/21 10/14/22 12/15/23 11/16/24
f 11/16/25 12/15/26 14/17/27 13/18/28
f 13/18/29 14/17/30 16/19/31 15/20/32
f 15/20/33 16/19/34 10/21/35 9/22/36
f 10/14/37 16/23/38 14/24/39 12/15/40
f 15/25/41 9/13/42 11/16/43 13/26/44
f 17/27/45 18/28/46 20/29/47 19/30/48
f 21/31/49 22/32/50 24/33/51 23/34/52
f 18/28/53 24/35/54 22/36/55 20/29/56
f 23/37/57 17/27/58 19/30/59 21/38/60
f 23/34/61 24/33/62 26/39/63 25/40/64
f 24/33/65 18/41/66 27/42/67 26/39/68
f 18/41/69 17/43/70 28/44/71 27/42/72
f 17/43/73 23/34/74 25/40/75 28/44/76
f 29/45/77 30/46/78 32/47/79 31/48/80
f 31/48/81 32/47/82 34/49/83 33/50/84
f 33/50/85 34/49/86 36/51/87 35/52/88
f 30/46/89 36/53/90 34/54/91 32/47/92
f 35/55/93 29/45/94 31/48/95 33/56/96
f 37/57/97 38/58/98 40/59/99 39/60/100
f 39/60/101 40/59/102 42/61/103 41/62/104
f 41/62/105 42/61/106 44/63/107 43/64/108
f 43/64/109 44/63/110 38/65/111 37/66/112
f 38/58/113 44/67/114 42/68/115 40/59/116
f 43/69/117 37/57/118 39/60/119 41/70/120
f 45/71/121 46/72/122 48/73/123 47/74/124
f 49/75/125 50/76/126 52/77/127 51/78/128
f 46/72/129 52/79/130 50/80/131 48/73/132
f 51/81/133 45/71/134 47/74/135 49/82/136
f 51/78/137 52/77/138 54/83/139 53/84/140
f 52/77/141 46/85/142 55/86/143 54/83/144
f 46/85/145 45/87/146 56/88/147 55/86/148
f 45/87/149 51/78/150 53/84/151 56/88/152
f 57/89/153 58/90/154 60/91/155 59/92/156
f 59/92/157 60/91/158 62/93/159 61/94/160
f 61/94/161 62/93/162 64/95/163 63/96/164
f 58/90/165 64/97/166 62/98/167 60/91/168
f 63/99/169 57/89/170 59/92/171 61/100/172
f 65/101/173 66/102/174 68/103/175 67/104/176
f 67/104/177 68/103/178 70/105/179 69/106/180
f 66/102/181 72/107/182 70/108/183 68/103/184
f 71/109/185 65/101/186 67/104/187 69/110/188
f 73/111/189 74/112/190 76/113/191 75/114/192
f 75/114/193 76/113/194 78/115/195 77/116/196
f 77/116/197 78/115/198 80/117/199 79/118/200
f 79/118/201 80/117/202 74/119/203 73/120/204
f 74/112/205 80/121/206 78/122/207 76/113/208
f 79/123/209 73/111/210 75/114/211 77/124/212
f 81/125/213 82/126/214 84/127/215 83/128/216
f 83/128/217 84/127/218 86/129/219 85/130/220
f 82/126/221 88/131/222 86/132/223 84/127/224
f 87/133/225 81/125/226 83/128/227 85/134/228
f 88/135/229 87/136/230 85/137/231 86/138/232
f 89/139/233 90/140/234 92/141/235 91/142/236
f 91/142/237 92/141/238 94/143/239 93/144/240
f 90/140/241 96/145/242 94/146/243 92/141/244
f 95/147/245 89/139/246 91/142/247 93/148/248
f 97/149/249 98/150/250 100/151/251 99/152/252
f 99/152/253 100/151/254 102/153/255 101/154/256
f 101/154/257 102/153/258 104/155/259 103/156/260
f 103/156/261 104/155/262 98/157/263 97/158/264
f 98/150/265 104/159/266 102/160/267 100/151/268
f 103/161/269 97/149/270 99/152/271 101/162/272
f 105/163/273 106/164/274 108/165/275 107/166/276
f 107/166/277 108/165/278 110/167/279 109/168/280
f 106/164/281 112/169/282 110/170/283 108/165/284
f 111/171/285 105/163/286 107/166/287 109/172/288
f 112/173/289 111/174/290 109/175/291 110/176/292
